{"title":"Daffy Duck's Movie: Fantastic Island (1983) DVD RIP","uid":10732957,"size":1367634391,"categoryP":"video","categoryS":"movies","magnet":"?xt=urn:btih:636be3c03640c7ba43c6ae2e743a4bd458901e6d&amp;dn=Daffy+Duck%27s+Movie%3A+Fantastic+Island+%281983%29+DVD+RIP&amp;tr=udp%3A%2F%2Ftracker.openbittorrent.com%3A80&amp;tr=udp%3A%2F%2Fopen.demonii.com%3A1337&amp;tr=udp%3A%2F%2Ftracker.coppersurfer.tk%3A6969&amp;tr=udp%3A%2F%2Fexodus.desync.com%3A6969","seeders":1,"leechers":2,"uploader":"jmanwf","files":-1,"time":1407649820,"description":"Storyline\n\nDaffy Duck and Speedy Gonzales find a treasure map that leads them to a wishing well, which for a penny will grant any wish (through old cartoon footage). Daffy sets up a resort around the well and various Looney Tunes characters have their dreams come true. Meanwhile, Yosemite Sam and the Tasmanian Devil hunt for the varmints who stole their treasure map!\n\n\nFormat : MPEG-4\nFormat profile : Base Media / Version 2\nCodec ID : mp42\nFile size : 17.5 MiB\nDuration : 1mn 0s\nOverall bit rate mode : Variable\nOverall bit rate : 2 446 Kbps\nEncoded date : UTC 2014-08-08 09:46:01\nTagged date : UTC 2014-08-08 09:46:39\nWriting application : HandBrake 0.9.9 2013052900\n\nVideo\nID : 1\nFormat : AVC\nFormat/Info : Advanced Video Codec\nFormat profile : &lt;a class=&quot;__cf_email__&quot; href=&quot;/cdn-cgi/l/email-protection&quot; data-cfemail=&quot;abe6cac2c5ebe79f859b&quot;&gt;[email&amp;#160;protected]&lt;/a&gt;&lt;script cf-hash='f9e31' type=&quot;text/javascript&quot;&gt;\n/* &lt;![CDATA[ */!function(){try{var t=&quot;currentScript&quot;in document?document.currentScript:function(){for(var t=document.getElementsByTagName(&quot;script&quot;),e=t.length;e--;)if(t[e].getAttribute(&quot;cf-hash&quot;))return t[e]}();if(t&amp;&amp;t.previousSibling){var e,r,n,i,c=t.previousSibling,a=c.getAttribute(&quot;data-cfemail&quot;);if(a){for(e=&quot;&quot;,r=parseInt(a.substr(0,2),16),n=2;a.length-n;n+=2)i=parseInt(a.substr(n,2),16)^r,e+=String.fromCharCode(i);e=document.createTextNode(e),c.parentNode.replaceChild(e,c)}}}catch(u){}}();/* ]]&gt; */&lt;/script&gt;\nFormat settings, CABAC : Yes\nFormat settings, ReFrames : 4 frames\nCodec ID : avc1\nCodec ID/Info : Advanced Video Coding\nDuration : 1mn 0s\nBit rate : 2 313 Kbps\nWidth : 960 pixels\nHeight : 700 pixels\nDisplay aspect ratio : 1.371\nOriginal display aspect ratio : 1.372\nFrame rate mode : Variable\nFrame rate : 23.976 fps\nMinimum frame rate : 16.435 fps\nMaximum frame rate : 23.981 fps\nColor space : YUV\nChroma subsampling : 4:2:0\nBit depth : 8 bits\nScan type : Progressive\nBits/(Pixel*Frame) : 0.144\nStream size : 16.6 MiB (95%)\nWriting library : x264 core 130 r2273 b3065e6\n\nEncoded date : UTC 2014-08-08 09:46:01\nTagged date : UTC 2014-08-08 09:46:39\nColor primaries : BT.709\nTransfer characteristics : BT.709\nMatrix coefficients : BT.709\n\nAudio\nID : 2\nFormat : AAC\nFormat/Info : Advanced Audio Codec\nFormat profile : LC\nCodec ID : 40\nDuration : 1mn 0s\nBit rate mode : Variable\nBit rate : 129 Kbps\nMaximum bit rate : 149 Kbps\nChannel(s) : 2 channels\nChannel positions : Front: L R\nSampling rate : 44.1 KHz\nCompression mode : Lossy\nStream size : 943 KiB (5%)\nLanguage : English\nEncoded date : UTC 2014-08-08 09:46:01\nTagged date : UTC 2014-08-08 09:46:38\n\n\n\n &lt;a href=&quot;\nhttp://www.imdb.com/title/tt0085390/&quot; rel=&quot;nofollow&quot; target=&quot;_NEW&quot;&gt;\nhttp://www.imdb.com/title/tt0085390/&lt;/a&gt;","torrent":{"xt":"urn:btih:636be3c03640c7ba43c6ae2e743a4bd458901e6d","amp;dn":"Daffy+Duck%27s+Movie%3A+Fantastic+Island+%281983%29+DVD+RIP","amp;tr":["udp%3A%2F%2Ftracker.openbittorrent.com%3A80","udp%3A%2F%2Fopen.demonii.com%3A1337","udp%3A%2F%2Ftracker.coppersurfer.tk%3A6969","udp%3A%2F%2Fexodus.desync.com%3A6969"],"infoHash":"636be3c03640c7ba43c6ae2e743a4bd458901e6d","infoHashBuffer":{"type":"Buffer","data":[99,107,227,192,54,64,199,186,67,198,174,46,116,58,75,212,88,144,30,109]},"announce":[],"urlList":[]}}